<svg width="40" height="40" viewBox="0 0 40 40" fill="none" xmlns="http://www.w3.org/2000/svg">
<circle cx="20" cy="20" r="20" fill="#2196F3"/>
<path d="M30 19.89V20.78C30 24.34 29.11 25.22 25.56 25.22H14.44C10.89 25.22 10 24.33 10 20.78V14.44C10 10.89 10.89 10 14.44 10H16" stroke="white" stroke-width="1.5" stroke-linecap="round" stroke-linejoin="round"/>
<path d="M20 25.2202V30.0002" stroke="white" stroke-width="1.5" stroke-linecap="round" stroke-linejoin="round"/>
<path d="M10 21H30" stroke="white" stroke-width="1.5" stroke-linecap="round" stroke-linejoin="round"/>
<path d="M15.5 30H24.5" stroke="white" stroke-width="1.5" stroke-linecap="round" stroke-linejoin="round"/>
<path d="M25.8598 17.3698H21.0998C19.7198 17.3698 19.2598 16.4498 19.2598 15.5298V12.0098C19.2598 10.9098 20.1598 10.0098 21.2598 10.0098H25.8598C26.8798 10.0098 27.6998 10.8298 27.6998 11.8498V15.5298C27.6998 16.5498 26.8798 17.3698 25.8598 17.3698Z" stroke="white" stroke-width="1.5" stroke-linecap="round" stroke-linejoin="round"/>
<path d="M28.9102 15.92L27.7002 15.07V12.31L28.9102 11.46C29.5102 11.05 30.0002 11.3 30.0002 12.03V15.36C30.0002 16.09 29.5102 16.34 28.9102 15.92Z" stroke="white" stroke-width="1.5" stroke-linecap="round" stroke-linejoin="round"/>
</svg>
