<?xml version="1.0" encoding="utf-8"?>
<!-- Generator: Adobe Illustrator 26.0.1, SVG Export Plug-In . SVG Version: 6.00 Build 0)  -->
<svg version="1.1" id="Layer_1" xmlns="http://www.w3.org/2000/svg" xmlns:xlink="http://www.w3.org/1999/xlink" x="0px" y="0px"
	 viewBox="0 0 24 24" style="enable-background:new 0 0 24 24;" xml:space="preserve">
<style type="text/css">
	.st0{fill:#263238;stroke:#FFFFFF;stroke-miterlimit:10;}
</style>
<path class="st0" d="M7.5,18.4l3.1,2.4c0.4,0.4,1.3,0.6,1.9,0.6h3.8c1.2,0,2.5-0.9,2.8-2.1l2.4-7.3c0.5-1.4-0.4-2.6-1.9-2.6h-4
	c-0.6,0-1.1-0.5-1-1.2l0.5-3.2C15.3,4,14.7,3,13.8,2.7C13,2.4,12,2.8,11.6,3.4L7.5,9.5"/>
<path class="st0" d="M2.4,18.3V8.5c0-1.4,0.6-1.9,2-1.9h1c1.4,0,2,0.5,2,1.9v9.8c0,1.4-0.6,1.9-2,1.9h-1C3,20.2,2.4,19.7,2.4,18.3z"
	/>
</svg>
